{"title":"Princess Of Mars 2009 720p BRRip H264 Feel-Free","uid":5955819,"size":1544527462,"categoryP":"video","categoryS":"hd___movies","magnet":"?xt=urn:btih:89eb3435ebfccc7482ee9c6efd4bccc49b9c33b0&amp;dn=Princess+Of+Mars+2009+720p+BRRip+H264+Feel-Free&amp;tr=udp%3A%2F%2Ftracker.openbittorrent.com%3A80&amp;tr=udp%3A%2F%2Fopen.demonii.com%3A1337&amp;tr=udp%3A%2F%2Ftracker.coppersurfer.tk%3A6969&amp;tr=udp%3A%2F%2Fexodus.desync.com%3A6969","seeders":1,"leechers":2,"uploader":"deffjam555","files":10,"time":1289714517,"description":"cover\n &lt;a href=&quot;\nhttp://img517.imageshack.us/img517/9931/123ka.png&quot; rel=&quot;nofollow&quot; target=&quot;_NEW&quot;&gt;\nhttp://img517.imageshack.us/img517/9931/123ka.png&lt;/a&gt;\n\nGenre:Sci-Fi | Thriller | War\nLanguage:English\nIMDb:http://www.imdb.com/title/tt1531911/\nSource:720p BluRay DTS x264-DNL\n\n\nGeneral\nComplete name :Princess Of Mars 2009 720p BRRip H264 Feel-Free\nFormat : MPEG-4\nFormat profile : Base Media\nCodec ID : mp42\nFile size : 1.43 GiB\nDuration : 1h 33mn\nOverall bit rate : 2 191 Kbps\nVideo #1\nCodec ID : avc1\nCodec ID/Info : Advanced Video Coding\nDuration : 1h 33mn\nBit rate mode : Variable\nBit rate : 1 710 Kbps\nWidth : 1 280 pixels\nHeight : 720 pixels\nDisplay aspect ratio : 16:9\nFrame rate mode : Constant\nFrame rate : 23.976 fps\nResolution : 24 bits\nColorimetry : 4:2:0\nScan type : Progressive\nBits/(Pixel*Frame) : 0.077\nStream size : 1.12 GiB (78%)\nAudio #2\nID : 2\nFormat : AAC\nFormat/Info : Advanced Audio Codec\nFormat version : Version 4\nFormat profile : LC\nFormat settings, SBR : No\nCodec ID : 40\nDuration : 1h 33mn\nBit rate mode : Constant\nBit rate : 477 Kbps\nNominal bit rate : 480 Kbps\nChannel(s) : 6 channels\nChannel positions : Front: L C R, Rear: L R, LFE\nSampling rate : 48.0 KHz\nResolution : 16 bits\nStream size : 319 MiB (22%)\n\nscreens\n &lt;a href=&quot;\nhttp://rapidhdd.com/images/58169vlcsnap-2010-11-14-06h41m03s147.png&quot; rel=&quot;nofollow&quot; target=&quot;_NEW&quot;&gt;\nhttp://rapidhdd.com/images/58169vlcsnap-2010-11-14-06h41m03s147.png&lt;/a&gt; &lt;a href=&quot;\nhttp://www.rapidhdd.com/images/915337vlcsnap-2010-11-14-06h42m15s84.png&quot; rel=&quot;nofollow&quot; target=&quot;_NEW&quot;&gt;\nhttp://www.rapidhdd.com/images/915337vlcsnap-2010-11-14-06h42m15s84.png&lt;/a&gt; &lt;a href=&quot;\nhttp://www.rapidhdd.com/images/988686vlcsnap-2010-11-14-06h42m26s217.png&quot; rel=&quot;nofollow&quot; target=&quot;_NEW&quot;&gt;\nhttp://www.rapidhdd.com/images/988686vlcsnap-2010-11-14-06h42m26s217.png&lt;/a&gt; &lt;a href=&quot;\nhttp://www.rapidhdd.com/images/785902vlcsnap-2010-11-14-06h42m44s138.png&quot; rel=&quot;nofollow&quot; target=&quot;_NEW&quot;&gt;\nhttp://www.rapidhdd.com/images/785902vlcsnap-2010-11-14-06h42m44s138.png&lt;/a&gt; &lt;a href=&quot;\nhttp://www.rapidhdd.com/images/182079vlcsnap-2010-11-14-06h42m59s32.png&quot; rel=&quot;nofollow&quot; target=&quot;_NEW&quot;&gt;\nhttp://www.rapidhdd.com/images/182079vlcsnap-2010-11-14-06h42m59s32.png&lt;/a&gt; &lt;a href=&quot;\nhttp://www.rapidhdd.com/images/657913vlcsnap-2010-11-14-06h45m40s69.png&quot; rel=&quot;nofollow&quot; target=&quot;_NEW&quot;&gt;\nhttp://www.rapidhdd.com/images/657913vlcsnap-2010-11-14-06h45m40s69.png&lt;/a&gt;","torrent":{"xt":"urn:btih:89eb3435ebfccc7482ee9c6efd4bccc49b9c33b0","amp;dn":"Princess+Of+Mars+2009+720p+BRRip+H264+Feel-Free","amp;tr":["udp%3A%2F%2Ftracker.openbittorrent.com%3A80","udp%3A%2F%2Fopen.demonii.com%3A1337","udp%3A%2F%2Ftracker.coppersurfer.tk%3A6969","udp%3A%2F%2Fexodus.desync.com%3A6969"],"infoHash":"89eb3435ebfccc7482ee9c6efd4bccc49b9c33b0","infoHashBuffer":{"type":"Buffer","data":[137,235,52,53,235,252,204,116,130,238,156,110,253,75,204,196,155,156,51,176]},"announce":[],"urlList":[]}}